<?xml version="1.0" standalone="no"?><!DOCTYPE svg PUBLIC "-//W3C//DTD SVG 1.1//EN" "http://www.w3.org/Graphics/SVG/1.1/DTD/svg11.dtd"><svg t="1689769189194" class="icon" viewBox="0 0 1024 1024" version="1.1" xmlns="http://www.w3.org/2000/svg" p-id="2504" width="16" height="16" xmlns:xlink="http://www.w3.org/1999/xlink"><path d="M676.409 528.95l-383.21 301.024C278.95 841.166 258 831.078 258 813.024v-602.05c0-18.05 20.95-28.14 35.199-16.948l383.21 301.023c11.01 8.65 11.01 25.252 0 33.901M694 864h64a8 8 0 0 0 8-8V168a8 8 0 0 0-8-8h-64a8 8 0 0 0-8 8v688a8 8 0 0 0 8 8" fill="#0061b2" p-id="2505"></path></svg>