<?xml version="1.0" standalone="no"?><!DOCTYPE svg PUBLIC "-//W3C//DTD SVG 1.1//EN" "http://www.w3.org/Graphics/SVG/1.1/DTD/svg11.dtd"><svg class="icon" viewBox="0 0 1024 1024" version="1.1" width="16" height="16" xmlns="http://www.w3.org/2000/svg" xmlns:svg="http://www.w3.org/2000/svg"><path fill="#6e6e6e" d="M 770.75 616.625 C 697.50883 630.22653 677.125 657.39512 677.125 700.75 C 677.125 707.12571 678.375 722.77419 678.375 730 C 678.375 763.15373 665.59255 773.875 634.375 773.875 L 616.625 773.875 L 616.625 823.125 L 634.375 823.125 C 665.59255 823.125 678.375 833.72127 678.375 866.875 C 678.375 874.10081 677.125 889.87429 677.125 896.25 C 677.125 939.60488 697.50883 966.77347 770.75 980.375 L 781.625 937.5 C 739.20116 924.74856 732.75 912.80291 732.75 886.875 C 732.75 878.37405 734 864.426 734 855.5 C 734 824.47152 719.19007 807.85105 692.375 798.5 C 719.19007 789.14895 734 772.52849 734 741.5 C 734 732.574 732.75 718.62595 732.75 710.125 C 732.75 684.19709 739.20116 672.25144 781.625 659.5 L 770.75 616.625 z M 826.25 616.625 L 815.375 659.5 C 857.79885 672.25144 864.25 684.19709 864.25 710.125 C 864.25 718.62595 863 732.574 863 741.5 C 863 772.52849 877.80993 789.14895 904.625 798.5 C 877.80993 807.85105 863 824.47152 863 855.5 C 863 864.426 864.25 878.37405 864.25 886.875 C 864.25 912.80291 857.79885 924.74856 815.375 937.5 L 826.25 980.375 C 899.49117 966.77347 919.875 939.60488 919.875 896.25 C 919.875 889.87429 918.625 874.10081 918.625 866.875 C 918.625 833.72127 931.40746 823.125 962.625 823.125 L 980.375 823.125 L 980.375 773.875 L 962.625 773.875 C 931.40746 773.875 918.625 763.15373 918.625 730 C 918.625 722.77419 919.875 707.12571 919.875 700.75 C 919.875 657.39512 899.49117 630.22653 826.25 616.625 z " /><path id="path3" fill="#0e932e" d="M 690.5 242.5 L 434.5 498.5 L 256 320 L 256 768 L 704 768 L 525 589 L 781 333 L 690.5 242.5 z "/></svg>