<?xml version="1.0" standalone="no"?><!DOCTYPE svg PUBLIC "-//W3C//DTD SVG 1.1//EN" "http://www.w3.org/Graphics/SVG/1.1/DTD/svg11.dtd"><svg t="1689769495960" class="icon" viewBox="0 0 1024 1024" version="1.1" xmlns="http://www.w3.org/2000/svg" p-id="3513" width="16" height="16" xmlns:xlink="http://www.w3.org/1999/xlink"><path d="M125.28125027 722.9375v105.46875h105.46875c0-59.76562473-45.70312527-105.46875-105.46875-105.46875z m0-140.62500027v70.31250054c98.43750027 0 175.78124973 77.34375027 175.78124973 175.78124973h70.31249973c0-137.109375-108.98437527-246.09375027-246.09374946-246.09375027z m632.8125-246.09374946H265.90624973v56.24999946c140.62500027 45.70312527 249.60937473 154.68749973 295.3125 295.3125H758.09375027V336.21875027zM125.28125027 441.68750027v70.31249973c175.78124973 0 316.40625 140.62500027 316.40625 316.40625h70.31249973c0-214.45312527-172.26562527-386.71874973-386.71874973-386.71874973z m703.12499973-246.09375027H195.59375c-38.67187473 0-70.31249973 31.640625-70.31249973 70.31249973v105.46875h70.31249973V265.90624973h632.8125v492.18750054h-246.09375027v70.31249973h246.09375027c38.67187473 0 70.31249973-31.640625 70.31249973-70.31249973V265.90624973c0-38.67187473-31.640625-70.31249973-70.31249973-70.31249973z" fill="#e0620d" p-id="3514"></path></svg>