<?xml version="1.0" standalone="no"?><!DOCTYPE svg PUBLIC "-//W3C//DTD SVG 1.1//EN" "http://www.w3.org/Graphics/SVG/1.1/DTD/svg11.dtd"><svg t="1697619781025" class="icon" viewBox="0 0 1024 1024" version="1.1" xmlns="http://www.w3.org/2000/svg" p-id="2367" width="16" height="16" xmlns:xlink="http://www.w3.org/1999/xlink"><path d="M823.336097 294.764618c-189.646353-89.133786-348.858982 90.307787-423.995062 0-29.711262-37.56804 36.123115-104.847341 0-151.717083-26.640797-32.872035-89.133786-26.640797-129.862598 0A421.556751 421.556751 0 0 0 89.585325 485.584972c0 231.549167 189.646353 417.763824 423.995061 417.763824 195.516359 0 359.876532-129.862598 409.907047-303.524473 15.713555-62.583297 34.407267-237.780404-100.151336-305.059705zM198.677132 477.818503a62.583297 62.583297 0 1 1 63.215451 62.583296 62.763912 62.763912 0 0 1-63.215451-62.583296z m151.717083 240.941176a62.583297 62.583297 0 1 1 62.583296-62.583297 63.215451 63.215451 0 0 1-62.131757 62.583297z m197.141899 72.24623a62.583297 62.583297 0 1 1 62.583297-62.583297 62.763912 62.763912 0 0 1-62.131758 62.222066zM690.403034 571.648294a93.829791 93.829791 0 1 1 93.829791-93.829791A93.107329 93.107329 0 0 1 690.403034 571.648294z" p-id="2368" fill="#6e6e6e"></path></svg>