<?xml version="1.0" standalone="no"?><!DOCTYPE svg PUBLIC "-//W3C//DTD SVG 1.1//EN" "http://www.w3.org/Graphics/SVG/1.1/DTD/svg11.dtd"><svg t="1691328759127" class="icon" viewBox="0 0 1024 1024" version="1.1" xmlns="http://www.w3.org/2000/svg" p-id="2316" width="16" height="16" xmlns:xlink="http://www.w3.org/1999/xlink"><path d="M890.58125 165.5375L123.725 461.54375c-43.246875 16.65-42.084375 40.93125 2.315625 54.1125l185.240625 55.040625 75.39375 224.090625c9.946875 29.371875 35.615625 35.615625 57.58125 13.640625l97.125-96.20625 191.94375 140.60625c24.975 18.271875 50.64375 8.559375 57.35625-21.740625L930.59375 200.215625c6.703125-30.290625-11.109375-45.778125-40.0125-34.678125zM774.021875 308.215625l-327 291.384375c-5.784375 5.315625-11.1 15.73125-12.028125 23.353125l-14.334375 135.75c-1.621875 15.2625-6.9375 15.95625-11.79375 1.153125L345.5 569.084375c-2.540625-7.396875 0.928125-16.65 7.63125-20.578125l414.88125-248.83125c26.128125-15.73125 28.903125-12.0375 6.009375 8.540625z" fill="#2aa515" p-id="2317"></path></svg>