<svg t="1689769240927" class="icon" viewBox="0 0 1024 1024" version="1.1" xmlns="http://www.w3.org/2000/svg" p-id="3148" width="16" height="16" xmlns:xlink="http://www.w3.org/1999/xlink">
<path d="M883.34375 363.03125l-238.03125-34.59375L538.90625 112.71875c-2.90625-5.90625-7.6875-10.6875-13.59375-13.59375-14.8125-7.3125-32.8125-1.21875-40.21875 13.59375L378.6875 328.4375l-238.03125 34.59375c-6.5625 0.9375-12.5625 4.03125-17.15625 8.71875-11.53125 11.90625-11.34375 30.84375 0.5625 42.46875l172.21875 167.90625-40.6875 237.09375c-1.125 6.46875-0.09375 13.21875 3 19.03125 7.6875 14.625 25.875 20.34375 40.5 12.5625L512 738.875l212.90625 111.9375c5.8125 3.09375 12.5625 4.125 19.03125 3 16.3125-2.8125 27.28125-18.28125 24.46875-34.59375l-40.6875-237.09375 172.21875-167.90625c4.6875-4.59375 7.78125-10.59375 8.71875-17.15625 2.53125-16.40625-8.90625-31.59375-25.3125-34.03125zM655.25 558.5l33.84375 197.15625L512 662.65625 334.90625 755.75l33.84375-197.15625-143.25-139.6875L423.5 390.125 512 210.78125 600.5 390.125l198 28.78125-143.25 139.59375z" fill="#6E6E6E"></path>
</svg>