<?xml version="1.0" standalone="no"?><!DOCTYPE svg PUBLIC "-//W3C//DTD SVG 1.1//EN" "http://www.w3.org/Graphics/SVG/1.1/DTD/svg11.dtd"><svg t="1690289409196" class="icon" viewBox="0 0 1024 1024" version="1.1" xmlns="http://www.w3.org/2000/svg" p-id="2338" width="16" height="16" xmlns:xlink="http://www.w3.org/1999/xlink"><path d="M353.796875 274.6953125h316.40625c14.50169563 0 26.36693001 11.86523438 26.36693001 26.36693001V721.61914063c0 14.50169563-11.86523438 26.36693001-26.36693001 26.36693-3.95507813 0-7.25123406-0.65892219-10.54661751-1.97753906L512 680.09082031l-147.65650749 65.91771126c-13.18307876 5.93261719-29.00339126 0-34.93600845-13.18307876-1.31861687-3.29615593-1.97753906-7.25123406-1.97753907-10.54738999V301.72193718c0-15.16139031 11.86523438-27.02662468 26.36693001-27.02662468z m75.80540657 98.87695313c-9.22800064 0-16.47923469 7.25123406-16.4792347 16.47923469s7.25123406 16.48000718 16.4792347 16.48000717h164.79543686c9.22800064 0 16.47923469-7.25123406 16.47923469-16.48000717s-7.25123406-16.47923469-16.47923469-16.4792347H429.60228157z m0 85.69310188c-9.22800064 0-16.47923469 7.25123406-16.4792347 16.48000717s7.25123406 16.47923469 16.4792347 16.47923469h164.79543686c9.22800064 0 16.47923469-7.25123406 16.47923469-16.47923469s-7.25123406-16.48000718-16.47923469-16.48000717H429.60228157z m0 85.69387436C420.37428093 544.95924187 413.12304687 552.20970343 413.12304687 561.43847655s7.25123406 16.47923469 16.4792347 16.47923471h85.69387436c9.22800064 0 16.47923469-7.25046158 16.4792347-16.47923471s-7.25123406-16.47923469-16.4792347-16.47923468H429.60228157z" fill="#FFFFFF" p-id="2339"></path><path d="M156.04296875 116.4921875h711.9140625c21.75292969 0 39.55078125 17.79785156 39.55078125 39.55078125v711.9140625c0 21.75292969-17.79785156 39.55078125-39.55078125 39.55078125H156.04296875C134.29003906 907.5078125 116.4921875 889.70996094 116.4921875 867.95703125V156.04296875C116.4921875 134.29003906 134.29003906 116.4921875 156.04296875 116.4921875z" fill="#0e932e" p-id="2340"></path><path d="M353.796875 274.6953125h316.40625c14.50169563 0 26.36693001 11.86523438 26.36693001 26.36693001V721.61914063c0 14.50169563-11.86523438 26.36693001-26.36693001 26.36693-3.95507813 0-7.25123406-0.65892219-10.54661751-1.97753906L512 680.09082031l-147.65650749 65.91771126c-13.18307876 5.93261719-29.00339126 0-34.93600845-13.18307876-1.31861687-3.29615593-1.97753906-7.25123406-1.97753907-10.54738999V301.72193718c0-15.16139031 11.86523438-27.02662468 26.36693001-27.02662468z m75.80540657 98.87695313c-9.22800064 0-16.47923469 7.25123406-16.4792347 16.47923469s7.25123406 16.48000718 16.4792347 16.48000717h164.79543686c9.22800064 0 16.47923469-7.25123406 16.47923469-16.48000717s-7.25123406-16.47923469-16.47923469-16.4792347H429.60228157z m0 85.69310188c-9.22800064 0-16.47923469 7.25123406-16.4792347 16.48000717s7.25123406 16.47923469 16.4792347 16.47923469h164.79543686c9.22800064 0 16.47923469-7.25123406 16.47923469-16.47923469s-7.25123406-16.48000718-16.47923469-16.48000717H429.60228157z m0 85.69387436C420.37428093 544.95924187 413.12304687 552.20970343 413.12304687 561.43847655s7.25123406 16.47923469 16.4792347 16.47923471h85.69387436c9.22800064 0 16.47923469-7.25046158 16.4792347-16.47923471s-7.25123406-16.47923469-16.4792347-16.47923468H429.60228157z" fill="#FFFFFF" p-id="2341"></path></svg>