<svg
   viewBox="0 0 1024 1024"
   width="256"
   height="256"
   xmlns="http://www.w3.org/2000/svg">
  <path
     d="M 795.88056,1020 H 228.11723 C 104.34116,1020 4,919.65769 4,795.88163 V 228.11607 C 4,104.34115 104.34116,4 228.11723,4 H 795.88282 C 919.66003,4 1020,104.34115 1020,228.11721 v 567.76442 c 0,123.77606 -100.34223,224.11717 -224.11944,224.11717 z"
     fill="#F07630"/>
  <path
     d="M 804.73377,219.26747 V 407.53186 A 711.34304,711.34304 0 0 0 616.43276,219.23087 h 188.26441 z m 0,414.14508 v 171.28584 h -73.18345 c 0,-282.92718 -229.35689,-512.28407 -512.28409,-512.28407 v -73.14685 h 171.17608 a 611.11832,611.11832 0 0 1 414.29146,414.14508 z"
     fill="#facdb1"/>
  <path
     d="m 219.26623,390.00444 c 229.02759,0 414.69397,185.66638 414.69397,414.69395 H 536.37009 A 317.10385,317.10385 0 0 0 219.26623,487.59455 Z"
     fill="#ffffff"/>
  <path
     d="M 219.26623,585.18468 A 219.55032,219.55032 0 0 1 438.81656,804.735 H 219.26623 Z"
     fill="#ffffff"/>
</svg>
